<svg width="33" height="33" viewBox="0 0 33 33" fill="none" xmlns="http://www.w3.org/2000/svg">
<g clip-path="url(#clip0_2_70)">
<path d="M27.5 24.75C27.8505 24.7504 28.1875 24.8846 28.4424 25.1252C28.6972 25.3657 28.8506 25.6946 28.8711 26.0444C28.8916 26.3943 28.7778 26.7388 28.5529 27.0075C28.3279 27.2763 28.0089 27.449 27.6609 27.4904L27.5 27.5H5.5C5.14954 27.4996 4.81246 27.3654 4.55762 27.1248C4.30278 26.8843 4.14943 26.5554 4.12889 26.2056C4.10835 25.8557 4.22218 25.5112 4.44711 25.2425C4.67205 24.9737 4.99112 24.801 5.33912 24.7596L5.5 24.75H27.5ZM27.5 15.125C27.8647 15.125 28.2144 15.2699 28.4723 15.5277C28.7301 15.7856 28.875 16.1353 28.875 16.5C28.875 16.8647 28.7301 17.2144 28.4723 17.4723C28.2144 17.7301 27.8647 17.875 27.5 17.875H5.5C5.13533 17.875 4.78559 17.7301 4.52773 17.4723C4.26987 17.2144 4.125 16.8647 4.125 16.5C4.125 16.1353 4.26987 15.7856 4.52773 15.5277C4.78559 15.2699 5.13533 15.125 5.5 15.125H27.5ZM27.5 5.5C27.8647 5.5 28.2144 5.64487 28.4723 5.90273C28.7301 6.16059 28.875 6.51033 28.875 6.875C28.875 7.23967 28.7301 7.58941 28.4723 7.84727C28.2144 8.10513 27.8647 8.25 27.5 8.25H5.5C5.13533 8.25 4.78559 8.10513 4.52773 7.84727C4.26987 7.58941 4.125 7.23967 4.125 6.875C4.125 6.51033 4.26987 6.16059 4.52773 5.90273C4.78559 5.64487 5.13533 5.5 5.5 5.5H27.5Z" fill="#F8F8F8"/>
</g>
<defs>
<clipPath id="clip0_2_70">
<rect width="33" height="33" fill="white"/>
</clipPath>
</defs>
</svg>
