<svg xmlns="http://www.w3.org/2000/svg" width="17.3" height="17.297" viewBox="0 0 17.3 17.297">
  <path id="Icon_awesome-instagram" data-name="Icon awesome-instagram" d="M8.647,6.451a4.435,4.435,0,1,0,4.435,4.435A4.428,4.428,0,0,0,8.647,6.451Zm0,7.318a2.883,2.883,0,1,1,2.883-2.883,2.888,2.888,0,0,1-2.883,2.883Zm5.65-7.5a1.034,1.034,0,1,1-1.034-1.034A1.032,1.032,0,0,1,14.3,6.27Zm2.937,1.05a5.119,5.119,0,0,0-1.4-3.624,5.152,5.152,0,0,0-3.624-1.4c-1.428-.081-5.708-.081-7.136,0A5.145,5.145,0,0,0,1.453,3.692a5.136,5.136,0,0,0-1.4,3.624c-.081,1.428-.081,5.708,0,7.136a5.119,5.119,0,0,0,1.4,3.624,5.159,5.159,0,0,0,3.624,1.4c1.428.081,5.708.081,7.136,0a5.119,5.119,0,0,0,3.624-1.4,5.152,5.152,0,0,0,1.4-3.624c.081-1.428.081-5.7,0-7.132Zm-1.845,8.665a2.919,2.919,0,0,1-1.644,1.644c-1.139.452-3.84.347-5.1.347s-3.964.1-5.1-.347A2.919,2.919,0,0,1,1.9,15.984c-.452-1.139-.347-3.84-.347-5.1s-.1-3.964.347-5.1A2.919,2.919,0,0,1,3.548,4.143c1.139-.452,3.84-.347,5.1-.347s3.964-.1,5.1.347a2.919,2.919,0,0,1,1.644,1.644c.452,1.139.347,3.84.347,5.1S15.841,14.85,15.389,15.984Z" transform="translate(0.005 -2.238)" fill="#fff" opacity="0.92"/>
</svg>
