<svg xmlns="http://www.w3.org/2000/svg" width="36" height="36" viewBox="0 0 36 36">
  <g id="Group_12" data-name="Group 12" transform="translate(-54 -654)">
    <g id="Ellipse_2" data-name="Ellipse 2" transform="translate(54 654)" fill="none" stroke="#fff" stroke-width="1">
      <circle cx="18" cy="18" r="18" stroke="none"/>
      <circle cx="18" cy="18" r="17.5" fill="none"/>
    </g>
    <path id="Icon_awesome-pinterest-p" data-name="Icon awesome-pinterest-p" d="M7.155.457C3.556.457,0,2.856,0,6.738,0,9.207,1.389,10.61,2.231,10.61c.347,0,.547-.968.547-1.242,0-.326-.831-1.021-.831-2.378A4.74,4.74,0,0,1,6.871,2.172c2.388,0,4.156,1.357,4.156,3.851,0,1.862-.747,5.355-3.167,5.355a1.557,1.557,0,0,1-1.62-1.536c0-1.326.926-2.609.926-3.977,0-2.322-3.293-1.9-3.293.9a4.12,4.12,0,0,0,.337,1.778c-.484,2.083-1.473,5.187-1.473,7.333,0,.663.095,1.315.158,1.978.119.133.06.119.242.053,1.768-2.42,1.7-2.893,2.5-6.06a2.845,2.845,0,0,0,2.43,1.263c3.725,0,5.4-3.63,5.4-6.9C13.467,2.73,10.458.457,7.155.457Z" transform="translate(65 662.543)" fill="#fff" opacity="0.92"/>
  </g>
</svg>
